<?xml version="1.0" encoding="utf-8"?>
<!-- Generator: Adobe Illustrator 17.0.0, SVG Export Plug-In . SVG Version: 6.00 Build 0)  -->
<!DOCTYPE svg PUBLIC "-//W3C//DTD SVG 1.1//EN" "http://www.w3.org/Graphics/SVG/1.1/DTD/svg11.dtd">
<svg version="1.1" id="Layer_1" xmlns="http://www.w3.org/2000/svg" xmlns:xlink="http://www.w3.org/1999/xlink" x="0px" y="0px"
	 width="500px" height="260.961px" viewBox="0 93.919 500 260.961" enable-background="new 0 93.919 500 260.961"
	 xml:space="preserve">
<g id="Logo">
	<g id="Year">
		<polygon id="_x31_" fill="#FFFFFF" points="254.167,308.671 229.324,308.671 229.324,249.392 229.324,140.128 229.324,93.919 
			194.041,93.919 140.946,93.919 103.352,140.128 133.721,140.128 181.729,140.128 181.729,308.671 149.912,308.671 112.318,354.88 
			123.464,354.88 229.324,354.88 291.766,354.88 		"/>
		<path id="_x35_" fill="#FFFFFF" d="M412.331,188.293c-13.54,0-23.384,3.283-34.462,8.621l5.468-56.78h47.668h63.388L456.8,93.924
			h-25.794h-62.583h-26.255l-7.8,128.842l22.569,14.356c15.595-10.257,25.031-14.769,41.855-14.769
			c28.722,0,48.008,17.639,48.008,48.818c0,31.597-21.34,50.062-50.475,50.062c-26.26,0-45.545-13.127-61.13-27.906l-21.748,30.358
			c19.286,19.286,46.774,36.114,89.036,36.114c48.008,0,91.912-32.826,91.912-89.862
			C494.394,213.732,457.061,188.293,412.331,188.293z"/>
		<g id="Apostroph">
			<g>
				<polygon fill="#FFFFFF" points="3.374,219.891 49.583,182.297 49.583,93.919 3.374,93.919 				"/>
			</g>
		</g>
	</g>
</g>
<g id="Guides" display="none">
</g>
</svg>
