<?xml version="1.0" encoding="utf-8"?>
<!-- Generator: Adobe Illustrator 17.0.0, SVG Export Plug-In . SVG Version: 6.00 Build 0)  -->
<!DOCTYPE svg PUBLIC "-//W3C//DTD SVG 1.1//EN" "http://www.w3.org/Graphics/SVG/1.1/DTD/svg11.dtd">
<svg version="1.1" id="Layer_1" xmlns="http://www.w3.org/2000/svg" xmlns:xlink="http://www.w3.org/1999/xlink" x="0px" y="0px"
	 width="276.521px" height="61.444px" viewBox="11.739 19.278 276.521 61.444"
	 enable-background="new 11.739 19.278 276.521 61.444" xml:space="preserve">
<g>
	<path fill="#FFFFFF" d="M104.757,35.135c6.619,0,11.07,1.262,11.07,14.385c0,12.357-4.185,13.964-11.07,13.964
		c-6.887,0-11.119-1.224-11.119-13.964C93.637,36.397,98.33,35.135,104.757,35.135z M104.757,59.315c5.03,0,6.632-1.528,6.632-9.796
		c0-9.711-2.035-10.214-6.632-10.214c-4.486,0-6.682,0.383-6.682,10.214C98.075,57.959,99.517,59.315,104.757,59.315z"/>
	<path fill="#FFFFFF" d="M119.314,35.326h11.85c3.33,0,7.379,1.154,7.379,8.446c0,8.345-4.306,8.922-7.379,8.826
		c-1.531-0.038-7.221-0.651-7.412-0.764V63.33h-4.438C119.314,63.33,119.314,35.326,119.314,35.326z M130.897,48.563
		c1.8,0,3.168-0.761,3.168-4.751c-0.049-3.927-1.828-4.41-3.168-4.41h-7.145v9.161H130.897z"/>
	<path fill="#FFFFFF" d="M142.482,40.835c0-4.456,3.009-5.585,5.621-5.509c0,0,10.673,0.399,12.24,0.612v3.625h-11.436
		c-1.989,0-1.989,1.109-1.989,2.142v5.561l11.761,0.397v3.625l-11.761,0.369v5.562c0.026,2.026,1.263,1.988,2.374,1.988h11.051
		v3.589c-1.381,0.187-11.856,0.649-11.856,0.649c-2.504,0.126-6.005-0.472-6.005-5.328L142.482,40.835L142.482,40.835z"/>
	<path fill="#FFFFFF" d="M164.24,35.326h4.512l12.499,19.778V35.326h4.439v28.005h-4.439l-12.537-19.645v19.645h-4.474
		L164.24,35.326L164.24,35.326z"/>
	<path fill="#FFFFFF" d="M199.743,35.326h4.439V57.17c0,2.028,1.261,1.991,2.371,1.991h10.366v4.17h-11.572
		c-2.86,0-5.605-0.896-5.605-5.223V35.326H199.743z"/>
	<path fill="#FFFFFF" d="M229.248,35.326h4.909l9.361,28.005h-4.853l-2.143-6.788h-9.899l-2.203,6.788h-4.928L229.248,35.326z
		 M235.357,52.495l-3.647-11.106l-3.825,11.106H235.357z"/>
	<path fill="#FFFFFF" d="M246.798,35.326h11.27c5.721,0,7.672,3.702,7.672,7.401c0,2.672-0.991,5.439-3.721,6.063
		c2.1,0.41,4.061,2.615,4.061,6.467c0,4.733-2.054,8.073-7.943,8.073h-11.34V35.326H246.798z M257.869,46.728
		c2.267,0,3.486-1.304,3.486-3.718c0-3.001-1.9-3.648-3.486-3.648h-6.607v7.366C251.262,46.728,257.869,46.728,257.869,46.728z
		 M258.002,59.295c1.703,0,3.641-0.67,3.641-4.219c0-2.336-1.031-4.447-3.641-4.447h-6.74v8.666H258.002z"/>
	<path fill="#FFFFFF" d="M269.311,42.174c0-5.547,3.289-7.038,7.572-7.079c3.302-0.053,8.432,0.554,10.37,1.039v3.515
		c-2.448-0.195-8.547-0.383-9.431-0.383c-2.464-0.074-4.074,0.126-4.074,3.176v1.787c0,2.68,1.125,3.083,3.341,3.083h4.787
		c5.344,0,6.384,4.003,6.384,7.115v2.133c0,6.023-3.954,7.076-7.74,7.076c-3.722,0-7.872-0.422-10.355-1.077v-3.514
		c1.53,0.152,6.126,0.42,9.685,0.42c1.594,0,3.972-0.195,3.972-2.786v-1.904c0-1.808-0.543-3.027-2.748-3.027h-4.685
		c-6.525,0-7.078-4.398-7.078-7.115L269.311,42.174L269.311,42.174z"/>
</g>
<g>
	<polygon fill="#FFFFFF" points="75.345,37.276 69.978,42.643 74.225,49.999 60.72,73.39 33.71,73.39 20.205,49.999 33.71,26.607 
		60.72,26.607 67.188,37.81 71.502,30.62 64.952,19.278 29.476,19.278 11.739,49.999 29.476,80.722 64.952,80.722 82.691,49.999 	
		"/>
	<polyline fill="#FFFFFF" points="67.188,37.81 67.188,37.812 69.978,42.643 55.755,56.865 66.98,38.002 	"/>
</g>
</svg>
