<?xml version="1.0" encoding="utf-8"?>
<!-- Generator: Adobe Illustrator 17.0.0, SVG Export Plug-In . SVG Version: 6.00 Build 0)  -->
<!DOCTYPE svg PUBLIC "-//W3C//DTD SVG 1.1//EN" "http://www.w3.org/Graphics/SVG/1.1/DTD/svg11.dtd">
<svg version="1.1" id="Layer_1" xmlns="http://www.w3.org/2000/svg" xmlns:xlink="http://www.w3.org/1999/xlink" x="0px" y="0px"
	 width="410.51px" height="500px" viewBox="28.956 0 410.51 500" enable-background="new 28.956 0 410.51 500" xml:space="preserve"
	>
<g id="Logo">
	<g id="Wordmark">
		<path fill="#FFFFFF" d="M175.802,432.503l-17.444-7.422c-9.466-4.083-20.227-8.534-20.227-20.227
			c0-10.949,9.093-17.815,22.827-17.815c11.134,0,20.227,4.454,27.651,11.508l8.163-10.022
			c-8.534-8.907-21.339-15.032-35.815-15.032c-22.086,0-38.415,13.735-38.415,32.29c0,17.815,13.361,26.54,24.68,31.364
			l17.444,7.607c11.508,5.198,20.415,9.096,20.415,21.527c0,11.878-9.466,19.856-25.425,19.856
			c-12.805,0-24.866-6.124-33.588-15.217l-9.278,10.764c10.578,10.949,25.425,18.003,42.498,18.003
			c25.61,0,41.568-15.402,41.568-34.703C200.853,446.979,189.904,438.628,175.802,432.503z"/>
		<path fill="#FFFFFF" d="M333.936,373.644l-38.754,126.353h14.838l10.998-38.522h41.719l10.995,38.522h15.362L350.34,373.644
			H333.936z M359.071,448.572h-34.387l5.586-19.26c4.013-14.062,7.68-27.929,11.346-42.57h0.701
			c3.666,14.641,7.332,28.509,11.346,42.57L359.071,448.572z"/>
		<path fill="#FFFFFF" d="M68.59,373.175c-21.889,0-39.634,17.745-39.634,39.634v47.554c0,21.889,17.745,39.634,39.634,39.634
			c21.889,0,39.634-17.745,39.634-39.634v-47.554C108.224,390.92,90.479,373.175,68.59,373.175z M94.284,460.363
			c0,14.169-11.528,25.694-25.694,25.694c-14.169,0-25.694-11.528-25.694-25.694v-47.554c0-14.169,11.528-25.694,25.694-25.694
			c14.169,0,25.694,11.528,25.694,25.694V460.363z"/>
		<path fill="#FFFFFF" d="M254.453,387.115c9.449,0,17.699,5.14,22.164,12.756l12.072-6.97
			c-6.869-11.786-19.61-19.726-34.233-19.726c-21.889,0-39.634,17.745-39.634,39.634v47.554c0,21.889,17.745,39.634,39.634,39.634
			c14.623,0,27.365-7.943,34.233-19.726l-12.072-6.97c-4.465,7.616-12.715,12.756-22.164,12.756
			c-14.169,0-25.694-11.528-25.694-25.694v-47.554C228.759,398.643,240.287,387.115,254.453,387.115z"/>
		<path fill="#FFFFFF" d="M420.634,487.291c-2.244,0-4.297-1.868-4.297-6.727V373.178h-15.324v106.268
			c0,13.265,4.671,20.554,16.257,20.554h22.196v-12.707h-18.831V487.291z"/>
	</g>
	<g id="Symbol">
		<g>
			<polygon fill="#FFFFFF" points="288.611,311.079 179.81,311.079 202.605,283.059 265.819,283.059 			"/>
		</g>
		<g>
			<path fill="#FFFFFF" d="M258.328,17.855v31.607c20.658,9.258,35.108,29.977,35.108,54.04v106.836
				c0,32.658-26.568,59.227-59.227,59.227s-59.227-26.568-59.227-59.227V103.503c0-24.067,14.45-44.783,35.108-54.04V17.855
				c-37.442,10.526-64.928,44.841-64.928,85.65v106.836c0,49.178,39.869,89.044,89.047,89.044s89.044-39.866,89.044-89.044V103.506
				C323.256,62.696,295.773,28.381,258.328,17.855z"/>
		</g>
		<g>
			<g>
				<polygon fill="#FFFFFF" points="334.709,31.17 311.914,3.151 258.328,3.151 258.328,31.17 				"/>
			</g>
		</g>
		<g>
			<g>
				<polygon fill="#FFFFFF" points="133.715,31.17 156.51,3.151 210.093,3.151 210.093,31.17 				"/>
			</g>
		</g>
	</g>
</g>
<g id="Guides" display="none">
</g>
</svg>
